<?xml version="1.0" encoding="utf-8"?>
<svg version="1.0" xmlns="http://www.w3.org/2000/svg" width="399px" height="395px" viewBox="0 0 399 395" preserveAspectRatio="xMidYMid meet">
  <g fill="#363636" transform="matrix(1.007853, 0, 0, 1.007853, -0.054977, -0.031416)">
    <path d="M221.6 271.8 C 221.6 286.7 209.6 298.8 194.7 298.8 179.8 298.8 167.7 286.7 167.7 271.8 167.7 257 179.8 244.9 194.7 244.9 209.6 244.9 221.6 257 221.6 271.8 Z M184.8 297 "/>
    <path d="M 83.3 261.5 c -4.2 -1.8 -6.3 -6.1 -6.3 -12.9 0 -10.4 3.4 -13.6 14.6 -13.6 6.1 0 6.8 0.2 9.9 3.3 3.3 3.3 3.3 3.3 3.7 -3 0.5 -8.7 3.2 -11.5 11.8 -12.1 6.9 -0.5 11.1 0.9 14 4.6 1.6 1.9 2 4 2 9.6 -0.1 10.7 -3.2 13.6 -14.5 13.6 -6.3 0 -6.9 -0.2 -10.1 -3.4 -3.4 -3.4 -3.4 -3.4 -3.4 1.4 0 6.6 -1.3 9.6 -5.2 12 -3.9 2.4 -11.7 2.6 -16.5 0.5 z "/>
    <path d="M93.5 220.7 C 93.5 228.8 87 235.3 78.9 235.3 70.8 235.3 64.3 228.8 64.3 220.7 64.3 212.6 70.8 206.1 78.9 206.1 87 206.1 93.5 212.6 93.5 220.7 Z M71 233.2 "/>
    <path d="M121.6 208.8 C 121.6 216.9 115 223.5 106.8 223.5 98.7 223.5 92.1 216.9 92.1 208.8 92.1 200.6 98.7 194 106.8 194 115 194 121.6 200.6 121.6 208.8 Z M98.3 221 "/>
    <path d="M304.6 181.9 C 304.6 189.9 298.2 196.4 290.1 196.4 282.1 196.4 275.6 189.9 275.6 181.9 275.6 173.9 282.1 167.4 290.1 167.4 298.2 167.4 304.6 173.9 304.6 181.9 Z M284.3 195.3 "/>
    <path d="M 310 182.7 c -3.5 -1.8 -5 -5.3 -5 -12.4 0 -5.7 1.4 -11.3 2.9 -11.3 0.3 0 1.6 -0.8 2.8 -1.8 2.3 -1.7 2.2 -1.7 -3 -1.4 -10.6 0.7 -15.7 -3.9 -15.7 -14.3 0 -8.9 4.9 -13.5 14.4 -13.5 9.5 0 13.6 4.3 13.6 14.3 0 6 -1.1 9.3 -3.9 11.4 -1.4 1.1 -1.2 1.2 1.4 1.3 4.1 0.1 10.9 3.3 12.9 6.1 1.9 2.8 2.2 13.5 0.4 17.4 -0.7 1.5 -2.4 3.3 -3.9 4.1 -3.4 1.7 -13.5 1.8 -16.9 0.1 z "/>
    <path d="M292.7 153.7 C 292.7 161.8 286.2 168.4 278.1 168.4 270 168.4 263.4 161.8 263.4 153.7 263.4 145.6 270 139.1 278.1 139.1 286.2 139.1 292.7 145.6 292.7 153.7 Z M270.3 166.4 "/>
    <path d="M228.5 119.7 C 228.5 134.4 216.6 146.3 202 146.3 187.3 146.3 175.4 134.4 175.4 119.7 175.4 105.1 187.3 93.2 202 93.2 216.6 93.2 228.5 105.1 228.5 119.7 Z M195 145.1 "/>
    <ellipse style="stroke: rgb(150, 79, 155); stroke-width: 7px; fill: oklch(0.28 0.001 256);" cx="198" cy="195" rx="191" ry="191"/>
  </g>
  <g fill="#964f9b" transform="matrix(0.507956, -1.196669, 1.196761, 0.507995, 11.492985, 16.202881)" style="transform-origin: 240.611px 217.529px;">
    <path d="M 142.6 376.4 c -0.9 -2.2 -0.8 -2.4 0.9 -1.8 0.8 0.4 1.5 1.2 1.5 2 0 1.9 -1.6 1.8 -2.4 -0.2 z "/>
    <path d="M 306.9 282.2 C 298.5 277.9 296.4 273.9 289.7 249.5 C 279.9 214.2 280.2 215.1 274.5 209.5 C 271.8 206.8 268.4 204 267 203.4 C 265.6 202.7 257.8 199.4 249.5 195.9 C 241.3 192.5 231.6 188.3 228 186.7 C 224.4 185 221.1 183.6 220.5 183.5 C 220 183.3 213.5 180.7 206.2 177.5 C 190.5 170.8 191.3 170.7 176 181 C 165.7 187.9 165.7 187.9 161.1 185.6 C 158.6 184.3 152 181.3 146.5 178.9 C 131.8 172.6 131.8 172.6 127.6 160.6 C 125.5 154.8 124 149.7 124.3 149.3 C 124.5 148.9 130.4 139.1 137.4 127.7 C 144.4 116.2 150.4 106.1 150.7 105.2 C 151.1 104.2 151.7 103.3 152.1 103 C 152.4 102.7 155.3 98.2 158.5 93 C 167.2 78.6 171.4 73.5 179.1 68 C 187 62.5 201.9 58.4 201.9 58.4 C 201.9 58.4 205.015 56.98 207.5 57.1 C 207.5 57.1 223.8 58.5 228.5 60 C 230.4 60.6 233.1 62.1 234.5 63.2 C 237 65.1 237.2 65.8 236.8 71.7 C 236.5 78.1 236.5 78.1 243.3 81 C 247 82.6 250.3 83.9 250.5 83.9 C 250.8 84 252.4 84.7 254 85.5 C 255.6 86.3 257.2 87 257.5 87 C 257.8 87 259.3 87.6 260.9 88.4 C 262.5 89.3 264.2 89.864 264.2 89.864 L 267.4 91.5 L 271.821 93.394 C 271.821 93.394 280.7 97.3 289.9 101.4 C 311.8 111.1 310.3 110.7 311.9 106.4 C 312.9 103.8 314.2 102.4 317.1 101.1 C 321 99.3 321.1 99.3 325.8 101.7 C 333.5 105.5 348.8 120.4 349.9 125.2 C 350 125.6 351.2 128.4 352.6 131.4 C 354 134.4 355.2 138.5 355.4 140.5 C 355.6 142.4 356 144.3 356.4 144.7 C 357.6 146 356.9 157.9 354 184.4 C 352.4 199.3 349.7 223.5 348.1 238.2 C 345.9 257.9 344.6 266 343.1 269.4 C 342 271.9 340.1 274 340.1 274 L 338.5 275.9 L 327.5 283.3 C 327.5 283.3 325.14 283.852 324.4 284.1 C 323.66 284.348 321.3 285 318.1 285 C 313.6 285 310.9 284.3 306.9 282.2 Z M 300.8 181.7 C 300.8 175.8 296.1 171.1 290.2 171.1 C 284.3 171.1 279.6 175.8 279.6 181.7 C 279.6 187.5 284.3 192.3 290.2 192.3 C 296.1 192.3 300.8 187.5 300.8 181.7 Z M 329.1 170 C 329.1 164.1 324.3 159.2 318.3 159.2 C 312.3 159.2 307.5 164.1 307.5 170 C 307.5 176 312.3 180.8 318.3 180.8 C 324.3 180.8 329.1 176 329.1 170 Z M 288.7 153.7 C 288.7 147.8 284 143 278 143 C 272.1 143 267.3 147.8 267.3 153.7 C 267.3 159.6 272.1 164.4 278 164.4 C 284 164.4 288.7 159.6 288.7 153.7 Z M 316.9 142.1 C 316.9 136.1 312.1 131.3 306.2 131.3 C 300.2 131.3 295.4 136.1 295.4 142.1 C 295.4 148.1 300.2 152.9 306.2 152.9 C 312.1 152.9 316.9 148.1 316.9 142.1 Z M 224.7 119.7 C 224.7 107.1 214.6 97 202 97 C 189.4 97 179.2 107.1 179.2 119.7 C 179.2 132.3 189.4 142.5 202 142.5 C 214.6 142.5 224.7 132.3 224.7 119.7 Z M 213.5 139.6"/>
  </g>
</svg>